<svg width="45" height="45" viewBox="0 0 45 45" fill="none" xmlns="http://www.w3.org/2000/svg">
<path d="M13.4753 0.304139C13.2706 0.314507 13.0706 0.369502 12.8894 0.465272C9.66862 2.17033 8.26225 5.66342 7.91807 8.8808C7.73726 8.82908 7.49945 8.74608 7.33763 8.6922C6.66746 8.46908 6.24512 8.23179 6.01378 7.93964C5.83685 7.71614 5.59619 7.55167 5.32368 7.46804C5.05117 7.38441 4.75968 7.38556 4.48784 7.47135C4.216 7.55713 3.97664 7.72349 3.80149 7.94838C3.62634 8.17327 3.52366 8.44608 3.50706 8.73065C3.26797 12.8783 4.57201 15.786 6.34886 17.809C6.35068 17.8109 6.35252 17.8127 6.35435 17.8145V25.1021C6.35435 25.1573 6.3654 25.2117 6.369 25.2669C6.36869 25.296 6.36775 25.6279 6.36717 25.688L5.41685 25.6954C4.90216 25.6991 4.48668 26.1164 4.48668 26.631L4.48118 31.8697C4.48118 32.12 4.57955 32.3599 4.75767 32.5362L7.14537 34.9056C7.43996 35.7515 7.83087 36.6012 8.38682 37.4471V37.4489C8.61069 37.7889 8.75872 37.9028 8.99656 38.1282C9.23441 38.3537 9.52765 38.6121 9.87547 38.8991C10.5711 39.4731 11.4772 40.1566 12.4994 40.8235C14.538 42.1536 16.9585 43.4894 19.4116 43.4969C21.8879 43.5519 24.3274 42.1996 26.3916 40.8565C27.4255 40.1837 28.3441 39.4932 29.0503 38.9138C29.4034 38.624 29.7012 38.3624 29.942 38.1374C30.1828 37.9124 30.3321 37.7922 30.5481 37.4855L30.5609 37.4672L30.5737 37.4489C31.1469 36.5775 31.5459 35.7019 31.8426 34.8305L34.1772 32.5142C34.3554 32.338 34.4537 32.098 34.4537 31.8477L34.4482 26.6091C34.4482 26.0944 34.0327 25.6753 33.518 25.6716L32.608 25.6661V21.8117C33.9057 22.7577 35.2333 24.041 36.3598 25.9755C36.5084 26.2309 36.7337 26.4331 37.0037 26.5532C37.2737 26.6733 37.5747 26.7054 37.8639 26.6448C38.1531 26.5842 38.4159 26.434 38.615 26.2156C38.814 25.9972 38.9392 25.7216 38.9728 25.428C39.2242 23.2362 39.2369 19.8994 37.6947 17.137C39.8042 15.6893 40.9118 13.3754 41.0473 11.0781C41.0616 10.8374 41.0137 10.5971 40.9084 10.3803C40.803 10.1635 40.6437 9.97737 40.4457 9.83985C40.2477 9.70233 40.0176 9.61802 39.7777 9.59501C39.5377 9.57199 39.2958 9.61105 39.0753 9.70844C37.9683 10.1964 37.4534 10.1169 36.4642 10.0087C36.2305 9.98318 35.8938 9.98059 35.6128 9.95929C37.3261 7.63968 38.7222 5.26031 39.1339 1.97589C39.1677 1.70524 39.122 1.43059 39.0025 1.18542C38.883 0.94024 38.6948 0.735107 38.4607 0.595003C38.2267 0.454899 37.957 0.385869 37.6844 0.396321C37.4119 0.406773 37.1482 0.496256 36.9256 0.65387C34.7059 2.23021 30.507 4.66796 27.0672 5.56476C27.2326 4.32986 27.4892 3.25663 27.8326 2.25787C27.9059 2.04493 27.927 1.81751 27.8941 1.59473C27.8612 1.37195 27.7753 1.16032 27.6436 0.977652C27.5119 0.794984 27.3382 0.646616 27.1372 0.545025C26.9363 0.443435 26.7138 0.391593 26.4886 0.393861C22.6388 0.433999 18.7305 2.03152 15.7641 4.87079C15.3896 3.78384 15.0768 2.62526 14.9438 1.53644C14.9003 1.1834 14.7246 0.859978 14.4521 0.63132C14.1796 0.402661 13.8306 0.285752 13.4753 0.304139ZM9.16685 17.2322H22.7514C23.1342 17.5426 23.5318 17.9652 23.9215 18.459L23.3374 18.9974C22.8639 18.6824 21.9887 18.232 20.86 18.232C19.0768 18.232 17.682 19.4414 17.6098 21.0042L16.6321 23.1484C16.5664 23.2909 16.5841 23.4557 16.676 23.5842C16.7688 23.7135 16.9257 23.7911 17.0935 23.7911H20.4828C21.3087 23.7911 22.6178 23.2571 22.6178 21.8227C22.6178 20.8168 21.9836 20.085 21.1108 20.085C20.0711 20.085 19.674 20.8754 19.6094 21.2935C19.57 21.5466 19.7622 21.7816 20.036 21.8172C20.3163 21.8556 20.5652 21.6766 20.6036 21.4235C20.6092 21.3813 20.6796 21.0115 21.1108 21.0115C21.4399 21.0115 21.6125 21.4196 21.6125 21.8227C21.6125 22.8361 20.4931 22.8646 20.4828 22.8646C19.3203 22.8646 18.6004 22.1994 18.6004 21.1269C18.6004 20.1594 19.4453 19.1585 20.86 19.1585C22.1284 19.1585 23.0086 19.943 23.0151 19.9495C23.2111 20.1305 23.5306 20.1305 23.7256 19.9495L24.4946 19.2409C25.2654 20.3767 25.9083 21.6514 26.1059 22.5368C26.1643 22.7979 26.2959 23.0369 26.4853 23.2258C26.6747 23.4148 26.9141 23.5458 27.1753 23.6034C27.4366 23.6611 27.7088 23.643 27.9602 23.5514C28.2115 23.4598 28.4315 23.2984 28.5943 23.0861L29.7955 21.5169V24.7249H9.16685V17.2322ZM9.17234 27.5374H12.0672C11.9972 27.7528 11.9782 27.9821 12.012 28.2065C12.0457 28.4308 12.1311 28.6438 12.2613 28.8279C12.3914 29.012 12.5625 29.1619 12.7605 29.2655C12.9585 29.369 13.1777 29.4231 13.4003 29.4234C13.6228 29.4231 13.842 29.369 14.04 29.2655C14.238 29.1619 14.4091 29.012 14.5392 28.8279C14.6694 28.6438 14.7548 28.4308 14.7885 28.2065C14.8223 27.9821 14.8033 27.7528 14.7333 27.5374H24.2456C24.1705 27.7537 24.1473 27.9851 24.178 28.2124C24.2087 28.4397 24.2924 28.6561 24.4221 28.8435C24.5518 29.031 24.7237 29.184 24.9233 29.2896C25.1229 29.3953 25.3445 29.4506 25.5694 29.4509C25.7944 29.4506 26.0159 29.3953 26.2156 29.2896C26.4152 29.184 26.5871 29.031 26.7168 28.8435C26.8464 28.6561 26.9302 28.4397 26.9609 28.2124C26.9916 27.9851 26.9684 27.7537 26.8933 27.5374H29.7955H28.5943H27.4336C26.2158 27.3446 24.9233 27.5374 24.9233 27.5374C24.4221 27.0609 19.4775 28.9675 19.4775 28.9675C19.4775 28.9675 15.6224 30.3942 13.8855 31.5529C12.3709 32.5633 10.8779 33.416 9.66673 33.6183C9.22247 32.1634 9.16502 30.6758 9.16502 29.0389C9.16502 28.1136 9.16925 28.1781 9.17234 27.5374ZM18.4375 32.8328C18.4947 32.8413 18.5364 32.8892 18.5364 32.9445V34.3453C18.5364 34.7418 18.8772 35.063 19.2962 35.063H21.0852C21.1752 35.063 21.2572 35.108 21.3013 35.1821C21.3463 35.2561 21.3454 35.3479 21.2994 35.4201C20.9563 35.9639 20.2413 36.9362 19.527 36.9362C18.7751 36.9362 18.0238 35.858 17.7051 35.3377C17.6019 35.1699 17.5799 34.9666 17.6446 34.7829L18.3056 32.9079C18.3244 32.8554 18.3803 32.8234 18.4375 32.8328Z" fill="white"/>
</svg>
